# xmcd
#
# Track frame offsets:
#	150
#	19450
#	39672
#	58012
#	81495
#	101817
#	120790
#	130307
#	148582
#	170050
#	188232
#	204535
#	222987
#
# Disc length: 3231 seconds
#
# Revision: 0
# Processed by: cddbd v1.4b42PL1 Copyright (c) Steve Scherf et al.
# Submitted via: EasyCDDAExtractor 4.5.0.1
#
DISCID=c60c9d0d
DTITLE=뜨인돌 - 들풀처럼
DYEAR=2001
DGENRE=blues
TTITLE0=너희가 이제는 주안에서 빛이라
TTITLE1=시작
TTITLE2=말씀이 노래가 되어 찬양은 육신이 되어
TTITLE3=시인 예수
TTITLE4=들풀
TTITLE5=꿈은 어디에
TTITLE6=내집 마련
TTITLE7=그리움이 사랑으로
TTITLE8=서른 해를 지내며
TTITLE9=이 가슴으로
TTITLE10=그의 나라엔
TTITLE11=그리움이 사랑으로
TTITLE12=너희가 이제는 주안에서 빛이라(반주)
EXTD=
EXTT0=
EXTT1=
EXTT2=
EXTT3=
EXTT4=
EXTT5=
EXTT6=
EXTT7=
EXTT8=
EXTT9=
EXTT10=
EXTT11=
EXTT12=
PLAYORDER=
